<svg width="100" height="100" xmlns="http://www.w3.org/2000/svg">
  <defs>
    <pattern id="smallGrid" width="10" height="10" patternUnits="userSpaceOnUse">
      <path d="M 10 0 L 0 0 0 10" fill="none" stroke="white" stroke-opacity="0.2" stroke-width="0.5"/>
    </pattern>
    <pattern id="grid" width="100" height="100" patternUnits="userSpaceOnUse">
      <rect width="100" height="100" fill="url(#smallGrid)"/>
      <path d="M 100 0 L 0 0 0 100" fill="none" stroke="white" stroke-opacity="0.5" stroke-width="1"/>
    </pattern>
  </defs>
  
  <rect width="100" height="100" fill="url(#grid)" />
  
  <!-- Magical elements -->
  <circle cx="20" cy="20" r="3" fill="white" fill-opacity="0.5" />
  <circle cx="80" cy="30" r="2" fill="white" fill-opacity="0.3" />
  <circle cx="65" cy="65" r="4" fill="white" fill-opacity="0.4" />
  <circle cx="30" cy="80" r="3" fill="white" fill-opacity="0.5" />
  
  <!-- Star shapes -->
  <path d="M50 10 L52 15 L58 15 L53 19 L55 25 L50 21 L45 25 L47 19 L42 15 L48 15 Z" fill="white" fill-opacity="0.6" />
  <path d="M15 50 L17 55 L23 55 L18 59 L20 65 L15 61 L10 65 L12 59 L7 55 L13 55 Z" fill="white" fill-opacity="0.4" transform="scale(0.6)" />
  <path d="M85 50 L87 55 L93 55 L88 59 L90 65 L85 61 L80 65 L82 59 L77 55 L83 55 Z" fill="white" fill-opacity="0.5" transform="scale(0.7)" />
</svg> 